<?xml version="1.0" encoding="UTF-8" standalone="no"?>
<!-- Created with Inkscape (http://www.inkscape.org/) -->

<svg
   xmlns:dc="http://purl.org/dc/elements/1.1/"
   xmlns:cc="http://creativecommons.org/ns#"
   xmlns:rdf="http://www.w3.org/1999/02/22-rdf-syntax-ns#"
   xmlns:svg="http://www.w3.org/2000/svg"
   xmlns="http://www.w3.org/2000/svg"
   xmlns:sodipodi="http://sodipodi.sourceforge.net/DTD/sodipodi-0.dtd"
   xmlns:inkscape="http://www.inkscape.org/namespaces/inkscape"
   version="1.1"
   width="512"
   height="325.81799"
   viewBox="0 0 512 325.818"
   id="Layer_1"
   xml:space="preserve"
   inkscape:version="0.48.5 r10040"
   sodipodi:docname="group.svg"><sodipodi:namedview
     pagecolor="#ffffff"
     bordercolor="#666666"
     borderopacity="1"
     objecttolerance="10"
     gridtolerance="10"
     guidetolerance="10"
     inkscape:pageopacity="0"
     inkscape:pageshadow="2"
     inkscape:window-width="1353"
     inkscape:window-height="868"
     id="namedview6"
     showgrid="false"
     inkscape:zoom="0.640625"
     inkscape:cx="-20.292683"
     inkscape:cy="162.909"
     inkscape:window-x="0"
     inkscape:window-y="0"
     inkscape:window-maximized="0"
     inkscape:current-layer="Layer_1" /><metadata
     id="metadata9"><rdf:RDF><cc:Work
         rdf:about=""><dc:format>image/svg+xml</dc:format><dc:type
           rdf:resource="http://purl.org/dc/dcmitype/StillImage" /><dc:title /></cc:Work></rdf:RDF></metadata><defs
     id="defs7" /><path
     d="m 349.091,139.637 c 38.522,0 69.591,-31.302 69.591,-69.818 C 418.682,31.301 387.613,0 349.091,0 c -38.522,0 -69.818,31.301 -69.818,69.818 -0.001,38.517 31.295,69.819 69.818,69.819 z m -186.182,0 c 38.517,0 69.585,-31.302 69.585,-69.818 C 232.494,31.301 201.426,0 162.909,0 124.391,0 93.091,31.301 93.091,69.818 c 0,38.517 31.301,69.819 69.818,69.819 z m 0,46.545 C 108.568,186.182 0,213.409 0,267.637 v 58.182 h 325.818 v -58.182 c 0,-54.228 -108.568,-81.455 -162.909,-81.455 z m 186.182,0 c -6.75,0 -14.318,0.466 -22.454,1.272 27,19.443 45.727,45.625 45.727,80.183 v 58.182 H 512 v -58.182 c 0,-54.228 -108.568,-81.455 -162.909,-81.455 z"
     id="path3"
     style="fill:#ffffff;fill-opacity:1" /></svg>