<?xml version="1.0" encoding="UTF-8"?>
<!-- Generator: Adobe Illustrator 15.0.2, SVG Export Plug-In . SVG Version: 6.00 Build 0)  -->
<!DOCTYPE svg PUBLIC "-//W3C//DTD SVG 1.1//EN" "http://www.w3.org/Graphics/SVG/1.1/DTD/svg11.dtd">
<svg xmlns="http://www.w3.org/2000/svg" xmlns:xlink="http://www.w3.org/1999/xlink" version="1.1" id="Layer_1" x="0px" y="0px" width="512px" height="512px" viewBox="0 0 512 512" enable-background="new 0 0 512 512" xml:space="preserve">
<path d="M326.4,38.763l66.35,55.881l21.575-6.031c-24.775-23.438-54.737-41.431-88-52.081L326.4,38.763z M455.7,273.05  l-13.188,79.312l16.438,12.788c17.475-32.426,27.412-69.513,27.45-108.919L455.7,273.05z M330.513,393.725l-69.557-49.475  l-79.544,29.838L161.825,456.6l24.531,19.088C208.331,482.65,231.725,486.4,256,486.4c21.8,0,42.9-3.025,62.9-8.688L330.513,393.725  z M147.731,453.85l19.581-82.524L94.557,315.45L39.55,335.125c18.8,51.425,55.406,94.275,102.356,121.088L147.731,453.85z   M96.531,301.6l9.981-95.318l-61.007-44.112C32.712,190.831,25.6,222.588,25.6,256c0,23.525,3.525,46.237,10.081,67.625  L96.531,301.6z M115.269,200.244l79.55-33.044L211.2,81.481l-48.288-36.3C113.881,66.862,73.831,105.15,49.894,152.906  L115.269,200.244z M431.612,348.25l13.188-79.325l-75.95-59.081l-82.75,29.844L272.912,335l69.562,49.487L431.612,348.25z   M364.412,197.844l13.188-95.318l-66.35-55.882L222.1,82.888l-16.387,85.719l75.962,59.081L364.412,197.844z M256,0  c141.388,0,256,114.612,256,256S397.388,512,256,512S0,397.388,0,256S114.612,0,256,0z" fill="#7ebce6"/>
</svg>
