<?xml version="1.0" encoding="utf-8"?>
<!-- Generator: Adobe Illustrator 16.0.0, SVG Export Plug-In . SVG Version: 6.00 Build 0)  -->
<!DOCTYPE svg PUBLIC "-//W3C//DTD SVG 1.1//EN" "http://www.w3.org/Graphics/SVG/1.1/DTD/svg11.dtd">
<svg version="1.1" id="Capa_1" xmlns="http://www.w3.org/2000/svg" xmlns:xlink="http://www.w3.org/1999/xlink" x="0px" y="0px"
	 width="500px" height="500px" viewBox="0 0 500 500" enable-background="new 0 0 500 500" xml:space="preserve" fill="#7ebce6">
<path d="M397.354,148.935c-14.689,2.301-24.986,107.19-11.99,122.649c12.994,15.461,45.576,43.098,91.553,21.453
	C522.887,271.393,476.313,136.566,397.354,148.935z"/>
<path d="M102.743,148.769c14.69,2.301,24.986,107.19,11.993,122.649c-12.993,15.461-45.577,43.1-91.551,21.453
	C-22.79,271.229,23.785,136.402,102.743,148.769z"/>
<path d="M278.031,40.299c-14.689,2.301-24.986,107.188-11.994,122.649c12.992,15.46,43.979,32.98,89.953,11.337
	C401.963,152.642,356.99,27.931,278.031,40.299z"/>
<path d="M224.926,40.134c14.689,2.301,24.985,107.189,11.993,122.65c-12.993,15.459-43.978,32.981-89.952,11.337
	C100.992,152.478,145.967,27.767,224.926,40.134z"/>
<path d="M250,199.564c35,0.103,82.203,39.766,103.905,65.214s65.038,70.787,54.699,140.274C404,436,364.21,461.996,341.667,461.996
	s-72.905-11.311-88.712-11.311c-15.807,0-70.524,15.017-89.263,10.726S103.021,444.333,94.344,389s37.315-101.039,63.199-130.082
	C205,205.667,250,199.564,250,199.564z"/>
<path stroke="#BF0411" stroke-width="4" stroke-miterlimit="10" d="M229.667,297.667"/>
</svg>

