<?xml version="1.0" encoding="UTF-8" standalone="no"?>
<!-- Created with Inkscape (http://www.inkscape.org/) -->

<svg
   xmlns:dc="http://purl.org/dc/elements/1.1/"
   xmlns:cc="http://creativecommons.org/ns#"
   xmlns:rdf="http://www.w3.org/1999/02/22-rdf-syntax-ns#"
   xmlns:svg="http://www.w3.org/2000/svg"
   xmlns="http://www.w3.org/2000/svg"
   version="1.1"
   width="834"
   height="1000"
   id="svg2">
  <metadata
     id="metadata10">
    <rdf:RDF>
      <cc:Work
         rdf:about="">
        <dc:format>image/svg+xml</dc:format>
        <dc:type
           rdf:resource="http://purl.org/dc/dcmitype/StillImage" />
        <dc:title></dc:title>
      </cc:Work>
    </rdf:RDF>
  </metadata>
  <defs
     id="defs8" />
  <path
     d="m 728.75,396 q 43.75,0 74.375,30.625 30.625,30.625 30.625,73.125 0,42.5 -30.625,73.125 Q 772.5,603.5 728.75,603.5 l -207.5,-3.75 0,212.5 q 0,42.5 -30.625,73.125 Q 460,916 416.25,916 q -43.75,0 -73.75,-30.625 -30,-30.625 -30,-73.125 l 3.75,-212.5 -212.5,3.75 Q 60,603.5 30,572.875 0,542.25 0,499.75 0,457.25 30,426.625 60,396 103.75,396 l 212.5,0 -3.75,-208.75 q 0,-42.5 30,-73.125 30,-30.625 73.75,-30.625 43.75,0 74.375,30.625 30.625,30.625 30.625,73.125 l 0,208.75 207.5,0 z"
     id="path4"
     style="fill:#ffffff;fill-opacity:1" />
</svg>
