<svg xmlns="http://www.w3.org/2000/svg" viewBox="0 0 100 100">
  <path fill="#7ebce6" d="M73.214 25v64.286h-5.356L68 5H35.856l-.143 84.286h-5.357V33.93H0V100h100V25H73.214zm5.356 7.144h16.072v19.643H78.57V32.144zm0 26.786h16.072v19.643H78.57V58.93zm-37.5-48.214H62.5v8.93H41.07v-8.93zm0 17.856H62.5V37.5H41.07v-8.928zm0 17.858H62.5v8.93H41.07v-8.93zm0 17.856H62.5v8.93H41.07v-8.93zM5.357 41.072H12.5v12.5H5.357v-12.5zm12.5 0H25v12.5h-7.143v-12.5zM5.357 62.5H12.5V75H5.357V62.5zm12.5 0H25V75h-7.143V62.5z"/>
</svg>