<svg xmlns="http://www.w3.org/2000/svg" width="317" height="357" viewBox="-1 -1 70.469231 79.361313" version="1" fill="#7ebce6">
  <g transform="translate(-240.893 -522.775)">
    id=&quot;g3338&quot;&gt;
    <ellipse cx="268.75" cy="541.648" rx="6.964" ry="6.429" transform="matrix(.85364 0 0 .9241 38.932 41.34)"/>
    <path d="M264.91 565.31c-.034 2.397-.013 2.622 2.77 3.034l9.64 1.43c2.522.372 3.056-4.662.626-5l-7.678-1.073v-11.606l-11.786-7.946-15 .178c-2.443.03-2.476.154-2.5 3.036l-.09 10.982c-.02 2.55 5.388 3.137 5.358.09l-.09-9.108 7.68.715-7.233 10.18 12.143 8.48 6.25-9.64z"/>
    <path d="M245.536 561.737l22.768 15.893c2.46 2.054 2.473 2.054.09 5.893l-6.25 13.482c-1.988 3.06-6.628.07-5.358-2.857l6.607-12.5-6.34-3.75-4.196 19.464c-1.524 3.335-6.45 1.87-5.446-1.696l3.93-14.643-8.75-11.25c-2.015-3.095-1.764-3.244.178-5.536zM286.964 597.898l.18-18.214 3.838-6.875c.688-1.234 3.17-.69 2.41.98l-1.785 3.93c-.94 2.067-.953 2.008-.178 5.535l3.213 14.643c.635 2.893 6.074 2.63 5.625-.447l-3.304-13.75c-.41-1.704 0-3.314.536-5.088l1.43-4.732 4.374 1.25-.447-13.75-13.482-1.964-.893 10.982-2.32.268-4.108 5.803c-1.155 1.63-.804 1.706-.804 4.106v17.5c0 2.878 5.686 2.668 5.714-.178z"/>
    <ellipse cx="268.75" cy="541.648" rx="6.964" ry="6.429" transform="matrix(.78974 0 0 .85556 73.65 72.786)"/>
    <path d="M289.82 557.45l12.5-1.16-.177-26.606c-.002-4.49-.396-4.457-4.643-5.18l-10.625-1.695c-2.983-.478-3.577 4.23-.893 4.73l10.982 2.054-.714 9.465-11.696 6.516-.715 7.59-3.93-4.643c-1.87-2.217-6.386.617-4.196 3.303l6.518 8.75c2.17 2.443 4.618 2.112 4.732 0l.536-5.714z"/>
  </g>
  <path d="M18.587 10.58c3.26 5.165 8.61 9.465 20.747 11.138-4.804-4.21-9.47-8.704-20.747-11.14z" stroke="#7ebce6" stroke-width=".519" stroke-linecap="round" stroke-linejoin="round"/>
  <path d="M27.66 8.992c-1.788 1.652-2.69 3.01-3.608 5.197l9.354 4.76c.797-1.61 2.788-3.306 1.813-5.212-2.328-4.547-5.895-6.285-7.56-4.746z" stroke="#7ebce6" stroke-width=".219"/>
  <path d="M48.514 36.513c-2.74 8.752-13.03 8.483-16.652 30.49 2.48-3.266 3.496.232 5.18.18 2.163-.067 3.95-2.684 5.713 0 2.504-2.8 3.56.292 5.536 0 2.495-.37 4.91-3.414 7.5 0 3.392-3.277 5.423-.23 8.036 0 2.04.18 2.738-3.48 4.643-.357-.614-14.58-5.45-13.925-6.507-28.215z"/>
</svg>