<svg height="500" viewBox="0 0 500 500" width="500" xmlns="http://www.w3.org/2000/svg" fill="#7ebce6">
  <path d="M323.77 180.378c-7.09 9.69-20.444 11.608-29.827 4.287-9.383-7.322-11.242-21.112-4.15-30.8 7.09-9.69 20.444-11.61 29.827-4.288 9.383 7.32 11.24 21.11 4.15 30.8zM214.46 253.595l-18.92 25.855-38.213-11.393c-5.718-1.705-11.69 1.7-13.342 7.604l-.448 1.603c-1.65 5.904 1.646 12.073 7.364 13.777l53.49 15.998 21.58-29.488-11.51-23.955zM349.78 252.237l-26.866-7.24-13.017-27.1-15.612 21.335 10.48 21.816.01-.005c1.357 2.69 3.768 4.803 6.836 5.63l32.32 8.71c5.76 1.552 11.646-2.01 13.15-7.956l.407-1.614c1.502-5.945-1.948-12.023-7.706-13.576z"/>
  <path d="M268.952 179.133l-41.52-8.146-12.098 16.533-20.138 27.518c-3.588 4.903-2.647 11.88 2.1 15.586l1.29 1.006c1.944 1.517 4.226 2.25 6.488 2.25 3.263 0 6.487-1.524 8.605-4.42l23.562-32.198 16.127 3.164-31.545 43.104 29.318 61.03-25.54 34.902c-3.59 4.903-2.648 11.88 2.1 15.586l1.29 1.006c1.943 1.517 4.225 2.25 6.487 2.25 3.263 0 6.487-1.524 8.605-4.42l28.584-39.058 5.593-7.644-18.627-38.777 45.006-61.5-35.655-27.82-.035.048z"/>
</svg>