<svg xmlns="http://www.w3.org/2000/svg" viewBox="0 0 100 125" fill="#7ebce6">
  <path d="M55.742 35.655c-.992-5.629-2.964-12.337-5.375-18.002l-.01.003c-4.926-4.24-15.164-6.03-26.388-4.05-11.226 1.975-20.233 7.16-23.413 12.83l-.092.018C.138 32.596.577 39.576 1.57 45.21c3.974 22.524 20.337 44.409 35.298 41.773 14.956-2.639 22.847-28.8 18.874-51.328zm-45.13 10.367c-.659.237-1.406.229-2.087-.095-1.372-.635-1.959-2.261-1.321-3.624 2.508-5.385 8.926-7.718 14.307-5.213 1.367.639 1.957 2.262 1.32 3.628-.64 1.367-2.261 1.959-3.625 1.321-2.657-1.239-5.819-.082-7.057 2.567-.319.686-.881 1.173-1.537 1.416zm39.017 9.227c-6.752 21.42-21.941 24.095-35.609 6.282l.026-.005c-.013-.008-.026-.013-.034-.021-.793-.557-.987-1.649-.431-2.446.561-.795 1.648-.989 2.446-.433 1.082.764 2.229 1.402 3.403 1.95 4.059 1.886 8.585 2.506 13.081 1.713 4.499-.794 8.537-2.925 11.704-6.082.918-.92 1.772-1.913 2.532-2.995.562-.793 1.653-.987 2.446-.431.798.556.987 1.648.431 2.446-.003.008-.013.018-.021.025l.026-.003zm-.172-16.54c-1.062 1.066-2.792 1.066-3.857 0-2.071-2.07-5.441-2.07-7.506 0-.536.536-1.235.803-1.933.803-.7-.005-1.398-.267-1.934-.803-1.062-1.064-1.062-2.795 0-3.86 4.203-4.198 11.032-4.198 15.229 0 1.07 1.069 1.07 2.796.001 3.86zm50.077-12.255h-.008c-3.182-5.674-12.184-10.855-23.413-12.835-8.434-1.489-16.312-.846-21.8 1.364l.359.836c2.118 4.967 3.964 10.854 5.129 16.248 2.459.978 4.564 2.85 5.768 5.43.639 1.369.046 2.995-1.32 3.633-1.101.51-2.355.216-3.14-.621.487 5.124.438 10.35-.126 15.422 2.416.428 4.823 1.352 7.309 1.79 6.35 1.118 13.261-.928 16.634 9.78l-.026-.005c.01.013.018.022.026.031.553.794.363 1.89-.432 2.446-.793.556-1.888.361-2.444-.432-.759-1.087-1.618-2.076-2.533-2.994-3.17-3.162-8.913-1.757-13.409-2.55-2.51-.44-4.287-.63-5.935-1.661-.587 3.09-1.363 5.134-2.348 7.968-1.345 3.9-2.998 7.321-4.909 10.229 2.864 3.439 6.299 5.755 10.217 6.45 14.96 2.636 31.324-19.249 35.296-41.773.993-5.634 1.433-12.614 1.105-18.756zm-6.531 17.058c-1.071 1.064-2.796 1.064-3.862 0-2.074-2.072-5.439-2.072-7.511 0-.529.534-1.229.802-1.929.802-.697 0-1.397-.269-1.928-.802-1.069-1.066-1.069-2.795 0-3.857 4.192-4.198 11.026-4.203 15.229-.005 1.062 1.066 1.062 2.795.001 3.862z"/>
</svg>